<?xml version="1.0" encoding="UTF-8"?>
<!DOCTYPE svg PUBLIC "-//W3C//DTD SVG 1.1//EN" "http://www.w3.org/Graphics/SVG/1.1/DTD/svg11.dtd">
<!-- Creator: CorelDRAW 2026 -->
<svg xmlns="http://www.w3.org/2000/svg" xml:space="preserve" width="63.3928mm" height="49.1649mm" version="1.1" style="shape-rendering:geometricPrecision; text-rendering:geometricPrecision; image-rendering:optimizeQuality; fill-rule:evenodd; clip-rule:evenodd"
viewBox="0 0 6339.28 4916.49"
 xmlns:xlink="http://www.w3.org/1999/xlink"
 xmlns:xodm="http://www.corel.com/coreldraw/odm/2003">
 <defs>
  <style type="text/css">
   <![CDATA[
    .fil0 {fill:black;fill-rule:nonzero}
   ]]>
  </style>
 </defs>
 <g id="Layer_x0020_1">
  <metadata id="CorelCorpID_0Corel-Layer"/>
  <g id="_52838570336">
   <g>
    <path class="fil0" d="M1994.66 1844.11c0,0 3.39,-102.28 -102.74,-247.87 -152.16,229.21 69.9,281.54 112.42,399.8 42.51,-70.16 157.09,-308.51 -92.23,-405.02 123.11,137.44 82.55,253.09 82.55,253.09z"/>
    <path class="fil0" d="M1604.27 691.33c0,0 90.86,47.04 267.91,13.91 -141.48,-235.98 -284.18,-58.09 -409.25,-70.56 45.02,68.6 210.94,274.58 405.33,91 -176.98,52.02 -263.99,-34.35 -263.99,-34.35z"/>
    <path class="fil0" d="M2106.61 1245.17c0,0 -54.57,-86.6 -223.89,-147.6 2.39,275.07 215.58,193.87 317.02,267.93 -4.04,-81.9 -42.83,-343.59 -303.42,-283.6 179,44.66 210.29,163.27 210.29,163.27z"/>
    <path class="fil0" d="M2556.11 749.28c0,0 58.8,-83.81 49.9,-263.54 -252.94,108.29 -95.86,273.69 -125.02,395.94 73.99,-35.34 300.45,-172.07 144.66,-389.4 27.74,182.47 -69.54,257 -69.54,257z"/>
    <path class="fil0" d="M2456.52 134.35c0,0 39.3,94.49 196.03,183.05 43.65,-271.67 -180.13,-227.31 -267.78,-317.4 -9.68,81.49 -15.25,345.92 251.62,330.46 -168.9,-73.99 -179.87,-196.11 -179.87,-196.11z"/>
    <path class="fil0" d="M2668.76 1185.91c0,0 60.46,82.62 233.63,131.73 -21.5,-274.28 -228.58,-178.53 -334.94,-245.42 9.73,81.48 66.57,339.85 322.3,261.98 -181.61,-32.24 -220.99,-148.29 -220.99,-148.29z"/>
    <path class="fil0" d="M3533.88 244.24c0,0 -68.48,76.09 -81.24,255.58 264.1,-76.98 128.03,-260.09 171.8,-377.92 -77.73,26.18 -318.97,134.52 -190.64,369.06 -5.57,-184.47 100.08,-246.72 100.08,-246.72z"/>
    <path class="fil0" d="M4076.19 714.4c0,0 -59.63,-83.16 -232.39,-133.87 19.01,274.47 226.86,180.55 332.75,248.44 -9.09,-81.54 -63.48,-340.45 -320.04,-264.84 181.38,33.79 219.68,150.27 219.68,150.27z"/>
    <path class="fil0" d="M4533.85 292.99c0,0 -93.18,42.39 -176.5,201.93 272.7,34.8 221.22,-187.46 308.34,-277.97 -81.78,-7 -346.23,-3.97 -322.06,262.29 68.47,-171.35 190.22,-186.25 190.22,-186.25z"/>
    <path class="fil0" d="M4854.37 664.8c0,0 -96.91,-32.73 -266.87,26.67 175.36,211.96 289.63,14.54 415.17,8.01 -54.87,-61 -249.96,-239.6 -414.42,-28.81 167.14,-78.1 266.12,-5.87 266.12,-5.87z"/>
    <path class="fil0" d="M4296.75 1399.93c0,0 99.36,-24.46 210.65,-165.93 -261.73,-84.47 -251.98,143.49 -354.3,216.36 78.99,21.99 339.52,67.65 364.87,-198.5 -98.87,155.8 -221.22,148.07 -221.22,148.07z"/>
    <path class="fil0" d="M4883.18 1633.67c0,0 -8.44,-102.04 -130.3,-234.43 -125.06,244.95 101.49,271.55 157.2,384.29 34.27,-74.48 120.92,-324.48 -137.84,-391.83 137.96,122.42 110.94,241.97 110.94,241.97z"/>
    <path class="fil0" d="M1534.5 1199.48c0,0 101.91,-8.85 233.81,-131.37 -245.58,-123.9 -271.17,102.8 -383.54,159.05 74.71,33.91 324.97,119.39 391.2,-139.76 -121.87,138.68 -241.47,112.08 -241.47,112.08z"/>
    <path class="fil0" d="M2011.11 336.71c0,0 81.41,62.07 261.49,60.17 -98.35,-257 -269.8,-106.49 -390.84,-140.46 32.49,75.37 160.18,306.94 383.47,159.82 -183.4,20.61 -254.12,-79.53 -254.12,-79.53z"/>
    <path class="fil0" d="M2214.27 939.13c0,0 13.77,-101.46 -76.56,-257.13 -175.08,212.27 40.38,287.18 70.5,409.22 49.53,-65.39 188.07,-290.72 -50.02,-412.37 108.28,149.38 56.08,260.28 56.08,260.28z"/>
    <path class="fil0" d="M2998.18 219.48c0,0 2.49,102.28 116.58,241.62 139.02,-237.4 -85.64,-277.08 -134.81,-392.78 -38.49,72.47 -139.39,317 115.03,399.19 -130.77,-130.25 -96.8,-248.03 -96.8,-248.03z"/>
    <path class="fil0" d="M2852.71 826.42c0,0 99.48,-24.05 211.43,-165.06 -261.49,-85.58 -252.64,142.37 -355.33,214.95 78.94,22.27 339.28,69.08 365.71,-197 -99.47,155.36 -221.81,147.11 -221.81,147.11z"/>
    <path class="fil0" d="M3299.65 1216.25c0,0 -102.27,-6.01 -250.5,96.22 225.15,158.09 283.28,-62.5 402.6,-101.93 -69.07,-44.36 -304.32,-165.11 -407.23,81.68 140.5,-119.51 255.13,-75.97 255.13,-75.97z"/>
    <path class="fil0" d="M3624.82 795.33c0,0 -88.73,-51.02 -266.94,-25.78 130.7,242.04 281.25,70.61 405.56,88.68 -41.87,-70.56 -198.43,-283.73 -400.81,-108.93 179.17,-44.13 262.19,46.03 262.19,46.03z"/>
    <path class="fil0" d="M4008.36 169c0,0 -78.33,65.93 -115.69,242.04 272.18,-39.92 162.68,-240.07 222.24,-350.78 -80.59,15.27 -334.47,89.38 -239.57,339.32 19.89,-183.4 133.02,-230.58 133.02,-230.58z"/>
    <path class="fil0" d="M4983.37 1093.19c0,0 -70.14,-74.6 -248.07,-102.34 54.82,269.6 248.66,149.32 362.4,202.77 -19.6,-79.65 -107.44,-329.16 -351.82,-220.77 184.16,9.87 237.49,120.34 237.49,120.34z"/>
    <path class="fil0" d="M4332.84 1022.95c0,0 76.26,-68.35 108.05,-245.54 -270.77,48.48 -155.01,245.07 -211.02,357.56 80.06,-17.7 331.45,-99.84 228.71,-346.75 -14.07,184.01 -125.74,234.73 -125.74,234.73z"/>
    <path class="fil0" d="M4286.7 1753.54c-26.01,74.71 -5.71,166.48 -39.85,229.15 80.66,-14.8 334.89,-87.79 241.17,-338.19 -20.79,183.34 -134.1,229.96 -134.1,229.96 0,0 78.63,-65.57 116.83,-241.43 -117.65,16.69 -164.27,63.66 -184.05,120.51z"/>
    <path class="fil0" d="M3839.61 1578.52c-0.65,0 -1.71,0.7 -1.6,2.07l1.6 -2.07z"/>
    <path class="fil0" d="M3918.38 871.71c-85.82,0 -131.85,146.53 -139.57,159.95 -7.6,13.48 -520.47,434.41 -520.47,434.41l148.41 0c343.86,-303.98 346.59,-305.82 359.41,-318.41 9.92,-9.63 32.78,-31.79 48.17,-44.9 13.48,-11.89 34.51,8.31 19.9,25.05 -9.33,8.67 -49.65,50.49 -56.9,57.21 -16.45,17.63 -131.08,150.68 -160,184.41 -16.73,18.42 -53.03,60.71 -88.06,96.64l129.05 0c0,0 192.3,-236.99 242.84,-304.4 120.5,-27.5 165.51,-81.25 177.15,-148.08 12.83,-62.29 -70.08,-141.88 -159.93,-141.88z"/>
    <path class="fil0" d="M4528.9 779.86c-187.13,-277.36 -527.36,-391.18 -866.64,-290.03 -161.19,48.12 -287.56,124.14 -386.73,213.29 -73.89,-94.44 -413.94,-474.08 -953.96,-246.91 -227.04,95.4 -381.63,243.47 -459.48,439.88 -96.2,242.87 -50.67,508.24 17.58,661.72l32.35 -14.38c-65.43,-147.23 -109.08,-401.61 -16.98,-634.21 74.24,-187.33 222.35,-328.76 440.25,-420.4 530.34,-223.03 850.26,152.71 914.4,238.42 -317.86,307.48 -334.59,748.42 -334.72,754.25l35.35 0.94c0.23,-7.47 28.38,-751.8 722.09,-958.62 324.08,-96.57 648.75,11.7 827.04,275.83 166.58,246.83 152.51,558.84 -35.7,794.87l27.74 22.11c197.99,-248.41 212.72,-576.85 37.41,-836.76z"/>
    <path class="fil0" d="M1298.55 3074.65c27.67,9.26 55.11,24.77 82.42,46.55 27.39,21.8 57.91,52.68 91.69,92.6l165.87 196.24c27.02,31.96 55.12,56.07 84.28,72.35 29.15,16.33 58.8,24.41 88.9,24.41 17.83,0 39.49,-4.7 64.98,-14.26 25.47,-9.49 42.81,-14.31 52.08,-14.31 19.6,0 33.72,6.77 42.34,20.25 8.61,13.54 12.88,36.29 12.88,68.24 0,60.17 -15.97,111.78 -47.86,154.79 -31.95,43 -69.42,64.5 -112.42,64.5 -33.79,0 -73.23,-15.97 -118.43,-47.88 -45.13,-31.95 -92.57,-77.09 -142.35,-135.48l-214.62 -252.48c-54.7,-63.91 -94.14,-103.82 -118.42,-119.8 -24.24,-15.98 -49.59,-23.93 -76.02,-23.93 -4.28,0 -9.61,0.48 -16.09,1.37 -6.47,0.94 -14.26,2.3 -23.52,4.16l0 -104.12c170.14,-135.78 300.39,-247.74 390.66,-335.88 90.26,-88.14 135.46,-147.89 135.46,-179.19 0,-16.58 -12.59,-37.19 -37.77,-61.77 -25.24,-24.53 -37.78,-44.25 -37.78,-58.98 0,-13.49 5.05,-25.02 15.2,-34.51 10.1,-9.57 21.92,-14.31 35.46,-14.31 9.21,0 26.07,3.08 50.67,9.21 24.53,6.11 44.83,9.19 60.8,9.19 16.57,0 35.93,-3.08 58.03,-9.19 22.16,-6.13 36.23,-9.21 42.41,-9.21 11.63,0 21.78,4.74 30.4,14.31 8.6,9.49 12.88,21.02 12.88,34.51 0,39.31 -46.8,108.32 -140.5,206.87 -93.67,98.59 -237.55,230.5 -431.63,395.75zm-246.95 -242.34l0 410.06c0,78.04 3.27,128.53 9.68,151.58 6.48,23.05 18.3,41.63 35.52,55.76 4.28,3.1 9.8,6.72 16.57,11.06 16.56,10.44 24.88,23.64 24.88,39.62 0,63.91 -19.36,127.45 -58.01,190.7 -38.72,63.25 -77.15,94.92 -115.22,94.92 -32.54,0 -59.57,-21.68 -81.07,-64.92 -21.5,-43.35 -32.24,-99.67 -32.24,-169.1 0,-3.08 0.89,-13.54 2.73,-31.35 9.26,-110.6 13.84,-225.4 13.84,-344.62l0 -286.57c0,-57.73 -4.75,-102.09 -14.26,-133.11 -9.57,-31.06 -24.77,-52.68 -45.61,-65.03 -5.52,-3.03 -14.73,-6.71 -27.67,-10.98 -33.13,-11.11 -49.72,-27.68 -49.72,-49.79 0,-17.81 16.87,-37.47 50.66,-58.97 17.17,-11.05 30.42,-20.26 39.63,-27.68 20.23,-14.73 47.74,-38.49 82.49,-71.39 34.67,-32.85 60.62,-49.29 77.79,-49.29 26.43,0 46.85,12.47 61.29,37.36 14.43,24.81 21.67,60.29 21.67,106.37 0,38.72 -2.19,87.73 -6.47,146.99 -4.27,59.28 -6.48,98.71 -6.48,118.38z"/>
    <path class="fil0" d="M2730.9 3174.17l0 165.89c0,69.38 2.02,114.87 6.01,136.37 3.97,21.5 10.86,37.19 20.72,46.99 6.72,6.77 18.42,12.29 34.98,16.57 16.64,4.32 25.19,15.08 25.83,32.25 0,50.36 -15.37,97.23 -46.08,140.52 -30.7,43.3 -61.41,64.99 -92.11,64.99 -35.63,0 -62.83,-20.32 -81.53,-60.83 -18.77,-40.56 -28.1,-100.14 -28.1,-178.77 0,-26.43 1.19,-76.33 3.69,-149.74 2.37,-73.41 3.67,-133.46 3.67,-180.15 0,-98.88 -12.29,-168.31 -36.87,-208.23 -24.53,-39.92 -65.1,-59.94 -121.63,-59.94 -34.98,0 -66.16,9.57 -93.48,28.58 -27.37,19.07 -52.68,48.52 -76.01,88.5 -6.78,11.7 -15.1,27.62 -24.9,47.94 -17.81,34.97 -32.23,52.49 -43.28,52.49 -6.18,-0.59 -12.19,-3.2 -17.99,-7.84 -5.83,-4.63 -11.23,-11.22 -16.1,-19.84l-52.5 -83.81c-1.91,-4.32 -3.27,-8.3 -4.16,-11.99 -0.94,-3.68 -1.42,-7.37 -1.42,-11.04 0,-31.95 34.57,-64.8 103.69,-98.66 69.07,-33.74 145.97,-50.61 230.78,-50.61 107.49,0 185.46,23.47 233.98,70.44 48.53,47.04 72.81,123.67 72.81,229.92zm-671.68 372.23c0,-40.51 15.09,-80.59 45.2,-120.21 30.05,-39.62 70.61,-72.04 121.63,-97.23 38.65,-19.66 79.53,-35.88 122.52,-48.82 43,-12.9 74.95,-19.37 95.79,-19.37 9.87,0 17.34,2.02 22.58,6 5.22,4.04 7.82,9.68 7.82,17.05 0,12.88 -18.11,25.83 -54.34,38.73 -19.64,7.3 -35.03,13.18 -46.07,17.51 -47.88,21.51 -83.03,44.66 -105.49,69.55 -22.44,24.9 -33.6,53.28 -33.6,85.24 0,33.79 12.41,62.06 37.29,84.75 24.88,22.75 55.77,34.1 92.59,34.1 19.66,0 40.08,-5.06 61.29,-15.21 21.2,-10.15 33.6,-15.2 37.29,-15.2 7.36,0 12.9,2.02 16.57,5.99 3.68,4.04 5.59,9.68 5.59,17.04 0,17.83 -26.43,52.58 -79.29,104.13 -52.8,51.61 -92.41,77.38 -118.84,77.38 -36.88,0 -84.15,-28.5 -141.88,-85.69 -57.72,-57.08 -86.65,-109 -86.65,-155.74z"/>
    <path class="fil0" d="M3052.47 2545.76c25.77,0 47.64,9.21 65.38,27.61 17.83,18.48 26.74,40.57 26.74,66.42 0,26.36 -9.09,48.81 -27.21,67.22 -18.11,18.42 -39.78,27.62 -64.91,27.62 -25.23,0 -47.15,-9.32 -65.91,-28.09 -18.72,-18.7 -28.09,-40.98 -28.09,-66.75 0,-25.26 9.37,-47.18 28.09,-65.93 18.76,-18.73 40.68,-28.1 65.91,-28.1zm45.13 329.87c22.7,0 38.86,10.93 48.42,32.73 9.44,21.8 14.24,61.23 14.24,118.37 0,11.64 -0.35,49 -0.94,111.96 -0.59,63.02 -0.89,120.28 -0.89,171.84l0 67.29c0,50.96 1.83,86 5.52,105.01 3.68,19.06 9.8,32.61 18.41,40.56 6.77,6.76 18.76,12.35 35.98,16.63 17.1,4.28 26.03,15.03 26.67,32.19 0,50.43 -15.21,97.23 -45.61,140.53 -30.4,43.31 -61.23,64.97 -92.59,64.97 -36.87,0 -64.19,-21.14 -82.02,-63.54 -17.81,-42.41 -26.71,-107.21 -26.71,-194.45 0,-6.13 0.94,-38.68 2.79,-97.65 1.84,-58.98 2.73,-115.23 2.73,-168.62 0,-61.42 -3.22,-101.69 -9.63,-120.75 -6.46,-19.01 -18.28,-33.45 -35.5,-43.3 -5.52,-3.1 -13.79,-6.77 -24.88,-11.05 -30.05,-12.89 -45.14,-28.21 -45.14,-46.09 0,-15.98 16.26,-32.55 48.81,-49.77 22.15,-11.65 39.02,-22.11 50.72,-31.3 11.65,-7.96 25.77,-20.25 42.4,-36.84 26.97,-25.82 49.41,-38.72 67.22,-38.72z"/>
    <path class="fil0" d="M3926.46 2873.79c23.92,0 41.14,3.98 51.55,11.99 10.45,7.96 15.67,20.56 15.67,37.71 0,51.69 -5.05,88.68 -15.15,111.07 -10.15,22.46 -26.9,33.62 -50.23,33.62 -9.87,0 -25.19,-2.07 -46.03,-6.41 -20.91,-4.28 -37.19,-6.47 -48.87,-6.47 -40.57,0 -79.24,13.84 -116.11,41.51 -36.88,27.62 -57.06,41.4 -60.82,41.4 -8.6,0 -14.9,-1.96 -18.89,-6 -3.97,-3.97 -5.92,-10.87 -5.92,-20.67 0,-39.31 33.9,-88.8 101.73,-148.36 67.87,-59.57 132.25,-89.39 193.07,-89.39zm-415.54 1.84c22.74,0 38.84,10.93 48.33,32.73 9.56,21.8 14.31,61.23 14.31,118.37 0,8.61 -0.28,43.29 -0.87,104.12 -0.66,60.81 -0.96,117.95 -0.96,171.41l0 87.48c0,43.07 1.83,73.12 5.52,90.34 3.69,17.23 9.8,30.41 18.42,39.62 3.68,3.69 13.48,9.28 29.51,16.57 15.97,7.42 23.93,19.37 23.93,35.94 0,49.18 -13.78,95.68 -41.46,139.64 -27.61,43.94 -56.76,65.86 -87.54,65.86 -36.81,0 -64.14,-21.14 -81.95,-63.55 -17.81,-42.41 -26.71,-107.2 -26.71,-194.46 0,-6.11 0.89,-38.66 2.77,-97.63 1.79,-59 2.75,-115.23 2.75,-168.64 0,-61.41 -3.27,-101.67 -9.68,-120.75 -6.48,-19 -18.3,-33.43 -35.45,-43.3 -5.59,-3.08 -13.84,-6.77 -24.9,-11.04 -30.17,-12.88 -45.14,-28.2 -45.14,-46.08 0,-15.98 16.28,-32.55 48.82,-49.72 22.11,-11.7 39.03,-22.16 50.66,-31.37 11.7,-7.94 25.77,-20.25 42.4,-36.82 27.02,-25.82 49.41,-38.72 67.24,-38.72z"/>
    <path class="fil0" d="M4716.72 3174.17l0 165.89c0,69.38 2.02,114.87 6.01,136.37 3.97,21.5 10.86,37.19 20.72,46.99 6.7,6.77 18.47,12.29 34.98,16.57 16.62,4.32 25.17,15.08 25.83,32.25 0,50.36 -15.37,97.23 -46.08,140.52 -30.7,43.3 -61.41,64.99 -92.12,64.99 -35.64,0 -62.82,-20.32 -81.54,-60.83 -18.76,-40.56 -28.08,-100.14 -28.08,-178.77 0,-26.43 1.18,-76.33 3.62,-149.74 2.49,-73.41 3.73,-133.46 3.73,-180.15 0,-98.88 -12.28,-168.31 -36.86,-208.23 -24.53,-39.92 -65.1,-59.94 -121.63,-59.94 -34.98,0 -66.16,9.57 -93.48,28.58 -27.32,19.07 -52.74,48.52 -76.03,88.5 -6.76,11.7 -15.08,27.62 -24.88,47.94 -17.81,34.97 -32.24,52.49 -43.3,52.49 -6.16,-0.59 -12.17,-3.2 -17.98,-7.84 -5.82,-4.63 -11.22,-11.22 -16.09,-19.84l-52.57 -83.81c-1.77,-4.32 -3.2,-8.3 -4.09,-11.99 -0.95,-3.68 -1.43,-7.37 -1.43,-11.04 0,-31.95 34.57,-64.8 103.7,-98.66 69.07,-33.74 146.03,-50.61 230.78,-50.61 107.49,0 185.46,23.47 233.98,70.44 48.58,47.04 72.81,123.67 72.81,229.92zm-671.68 372.23c0,-40.51 15.09,-80.59 45.2,-120.21 30.05,-39.62 70.61,-72.04 121.63,-97.23 38.65,-19.66 79.51,-35.88 122.51,-48.82 43.01,-12.9 74.89,-19.37 95.8,-19.37 9.85,0 17.39,2.02 22.56,6 5.23,4.04 7.84,9.68 7.84,17.05 0,12.88 -18.11,25.83 -54.34,38.73 -19.66,7.3 -35.03,13.18 -46.07,17.51 -47.88,21.51 -83.03,44.66 -105.49,69.55 -22.44,24.9 -33.62,53.28 -33.62,85.24 0,33.79 12.43,62.06 37.31,84.75 24.88,22.75 55.77,34.1 92.59,34.1 19.64,0 40.08,-5.06 61.27,-15.21 21.22,-10.15 33.62,-15.2 37.31,-15.2 7.36,0 12.88,2.02 16.63,5.99 3.62,4.04 5.46,9.68 5.46,17.04 0,17.83 -26.37,52.58 -79.23,104.13 -52.79,51.61 -92.4,77.38 -118.83,77.38 -36.88,0 -84.16,-28.5 -141.88,-85.69 -57.78,-57.08 -86.65,-109 -86.65,-155.74z"/>
    <path class="fil0" d="M5104.63 2699.61l0 681.9c0,47.88 1.84,81.08 5.52,99.5 3.69,18.47 10.46,32.59 20.26,42.39 7.37,6.79 19.66,12.12 36.88,16.17 17.22,3.97 25.77,14.84 25.77,32.66 0,49.77 -15.5,96.45 -46.49,140.06 -31.01,43.65 -62.19,65.44 -93.55,65.44 -36.87,0 -64.19,-20.42 -82,-61.28 -17.76,-40.86 -26.67,-102.75 -26.67,-185.67l0 -42.41c3.62,-135.13 5.52,-152.76 5.52,-287.23 0,-188.65 -3.68,-295.61 -11.04,-344.44 -7.42,-48.82 -20.91,-79.41 -40.57,-91.7 -7.36,-4.28 -18.7,-9.21 -34.09,-14.73 -32.61,-12.29 -48.82,-27.33 -48.82,-45.14 0,-17.16 18.42,-34.68 55.3,-52.5 22.09,-11.11 39.9,-20.91 53.38,-29.53 9.87,-6.7 23.05,-17.81 39.61,-33.13 30.78,-27.68 56.84,-41.47 78.34,-41.47 22.74,0 38.83,8.15 48.39,24.41 9.52,16.28 14.26,53.29 14.26,111.02l0 15.68z"/>
    <path class="fil0" d="M5415.73 2545.76c25.78,0 47.64,9.21 65.39,27.61 17.82,18.48 26.73,40.57 26.73,66.42 0,26.36 -9.02,48.81 -27.14,67.22 -18.11,18.42 -39.73,27.62 -64.98,27.62 -25.17,0 -47.08,-9.32 -65.85,-28.09 -18.77,-18.7 -28.1,-40.98 -28.1,-66.75 0,-25.26 9.33,-47.18 28.1,-65.93 18.77,-18.73 40.68,-28.1 65.85,-28.1zm45.14 329.87c22.76,0 38.85,10.93 48.41,32.73 9.5,21.8 14.24,61.23 14.24,118.37 0,11.64 -0.28,49 -0.94,111.96 -0.59,63.02 -0.89,120.28 -0.89,171.84l0 67.29c0,50.96 1.83,86 5.52,105.01 3.69,19.06 9.8,32.61 18.42,40.56 6.76,6.76 18.75,12.35 35.97,16.63 17.17,4.28 26.08,15.03 26.67,32.19 0,50.43 -15.14,97.23 -45.61,140.53 -30.35,43.31 -61.22,64.97 -92.52,64.97 -36.88,0 -64.21,-21.14 -82.02,-63.54 -17.87,-42.41 -26.73,-107.21 -26.73,-194.45 0,-6.13 0.89,-38.68 2.74,-97.65 1.91,-58.98 2.8,-115.23 2.8,-168.62 0,-61.42 -3.22,-101.69 -9.7,-120.75 -6.46,-19.01 -18.28,-33.45 -35.45,-43.3 -5.57,-3.1 -13.84,-6.77 -24.88,-11.05 -30.1,-12.89 -45.19,-28.21 -45.19,-46.09 0,-15.98 16.33,-32.55 48.88,-49.77 22.15,-11.65 39.02,-22.11 50.65,-31.3 11.65,-7.96 25.77,-20.25 42.41,-36.84 27.01,-25.82 49.4,-38.72 67.22,-38.72z"/>
    <path class="fil0" d="M3045.99 2205.75c-334.89,0 -607.18,-263.17 -639.44,-607.42l1046.19 0c5.46,46.27 26.01,300.83 -162.62,440.71 228.41,-74.42 232.4,-389.34 231.51,-440.71l163.26 0c-30.05,341.64 -304.13,607.42 -638.9,607.42zm764.03 -680l-50.02 0 -53.8 0 -1320.44 0 -53.85 0 -14.26 0c-20.02,0 -36.23,16.21 -36.23,36.28 0,20.02 16.21,36.3 36.23,36.3l10.57 0c10.03,290.73 205.84,540.73 476.72,635.75 -14.38,17.88 -68.96,32.31 -90.29,38.31 -33.13,9.21 -33.01,35.87 -2.72,35.87l656.94 0c30.29,0 30.35,-26.66 -2.61,-35.87 -20.25,-5.69 -70.36,-18.94 -87.84,-35.51 275.33,-92.72 475.17,-344.79 485.32,-638.55l46.28 0c20.06,0 36.28,-16.28 36.28,-36.3 0,-20.07 -16.22,-36.28 -36.28,-36.28z"/>
   </g>
   <path class="fil0" d="M-0 4646.22l19.98 -4.76c23.79,-6.66 39.97,-15.23 50.43,-25.69 10.47,-9.52 19.98,-27.6 28.55,-54.25l135.12 -390.18c6.67,-19.98 9.52,-34.26 9.52,-41.87 0,-10.47 -2.85,-19.04 -8.56,-25.7 -6.67,-5.71 -16.18,-9.51 -29.51,-12.37l-19.98 -4.76 10.47 -29.5 165.57 0 174.13 498.67c9.52,27.6 19.98,47.58 30.45,60.91 10.47,13.32 25.7,28.55 47.59,44.73l-11.42 14.27 -195.07 0 -9.52 -29.5 20.94 -4.76c13.32,-2.85 22.83,-7.61 29.49,-14.27 5.71,-5.71 8.56,-14.28 8.56,-24.75 0,-6.66 -0.95,-14.27 -3.8,-22.84 -2.86,-8.56 -5.71,-14.27 -6.67,-18.08l-40.91 -120.86 -198.87 0 -20.94 62.81c-12.37,39.02 -19.03,69.47 -19.03,90.41 0,20.93 3.8,38.06 12.37,52.34l6.66 15.23 -16.18 14.27 -157.95 0 -11.42 -29.5zm225.52 -259.8l162.71 0 -82.78 -241.73 -79.93 241.73z"/>
   <path id="_1" class="fil0" d="M836.42 4916.49c-31.41,0 -58.99,-5.71 -80.88,-17.13 -22.84,-12.37 -39.97,-27.6 -50.43,-46.63 -11.42,-19.03 -17.13,-39.02 -17.13,-59.96 0,-29.5 9.52,-54.24 29.49,-74.23 19.99,-19.98 46.63,-30.45 80.89,-30.45 4.76,0 8.56,0.95 11.41,2.86 2.86,0.95 3.81,2.85 3.81,5.71 0,2.85 -3.81,8.56 -11.41,17.13 -8.57,8.56 -15.23,18.08 -20.94,30.45 -6.66,12.37 -9.51,27.6 -9.51,45.68 0,22.84 6.66,41.87 20.93,58.05 13.32,15.23 31.4,22.84 54.24,22.84 35.21,0 61.84,-14.27 78.97,-43.78 17.13,-29.5 25.7,-69.47 25.7,-118.95l0 -127.53c-14.28,25.7 -34.26,45.68 -59.95,59.96 -26.64,14.27 -56.14,21.89 -88.49,21.89 -40.92,0 -72.33,-12.37 -94.2,-38.07 -22.84,-24.74 -34.26,-59.95 -34.26,-104.68l0 -190.33c0,-7.62 -0.96,-13.33 -3.81,-16.18 -2.86,-2.86 -6.66,-4.76 -13.32,-4.76l-39.01 0 -6.66 -20.94c14.26,-15.22 32.34,-27.6 54.23,-37.11 20.94,-9.52 39.97,-14.28 58.04,-14.28 8.57,0 15.23,1.91 20.94,6.66 4.76,4.76 7.61,11.42 7.61,19.04l0 237.91c0,34.26 6.66,59.96 20.94,78.04 14.27,18.08 34.25,26.65 59.94,26.65 39.02,0 68.51,-14.28 90.4,-42.83 21.89,-28.55 32.36,-68.52 32.36,-120.86 0,-47.58 -1.91,-82.79 -5.71,-105.63 -3.81,-22.84 -13.33,-43.78 -28.55,-62.81l-9.52 -13.33 9.52 -12.37 105.62 -10.47 0 458.7c0,70.43 -17.13,124.67 -51.38,163.69 -34.26,39.02 -80.88,58.05 -139.88,58.05z"/>
   <path id="_2" class="fil0" d="M1329.32 4688.09c-40.92,0 -73.26,-12.37 -96.1,-38.06 -22.84,-24.75 -34.26,-59.96 -34.26,-104.69l0 -215.07c0,-14.28 -5.71,-20.94 -17.13,-20.94l-39.01 0 -6.66 -20.94c14.27,-15.22 32.35,-27.59 54.23,-37.11 20.94,-9.52 39.97,-14.28 58.05,-14.28 8.57,0 15.22,1.91 20.93,6.67 4.76,4.75 7.61,11.42 7.61,19.03l0 261.71c0,34.26 6.66,59.95 20.94,78.03 14.27,18.08 34.26,27.6 61.85,27.6 39.01,0 68.52,-17.13 90.39,-50.44 21.89,-33.31 32.36,-78.99 32.36,-137.99 0,-41.87 -1.9,-75.18 -6.66,-98.97 -4.76,-23.79 -14.28,-46.63 -27.6,-69.47l-10.46 -13.33 10.46 -12.37 106.58 -10.47 0 362.59c0,18.08 7.61,26.64 22.84,26.64 14.27,0 28.55,-4.75 42.82,-15.22l17.12 21.89c-14.26,16.17 -29.49,29.5 -46.62,39.97 -18.08,10.46 -34.26,15.22 -49.49,15.22 -22.83,0 -39,-6.66 -49.47,-20.93 -10.47,-13.33 -15.23,-34.26 -15.23,-62.81 -14.27,25.69 -34.25,46.63 -59.94,60.9 -25.7,15.23 -55.2,22.84 -87.55,22.84z"/>
   <path id="_3" class="fil0" d="M1697.58 4649.07l16.17 -4.75c15.22,-2.86 25.69,-8.57 30.45,-18.09 4.76,-8.56 6.66,-24.74 6.66,-46.63l0 -241.72c0,-6.66 -0.95,-12.37 -3.81,-15.23 -2.85,-2.85 -6.66,-3.8 -13.32,-3.8l-37.11 0 -8.56 -22.84c16.18,-15.23 35.2,-27.6 57.09,-37.12 21.89,-9.51 40.92,-14.27 57.1,-14.27 8.56,0 15.22,2.85 19.97,7.61 4.76,4.76 7.62,11.42 7.62,19.03l0 94.22 4.76 0c10.46,-39.02 25.69,-69.47 46.63,-93.26 19.98,-23.8 42.81,-35.22 66.6,-35.22 23.79,0 43.78,7.62 59.95,22.84 15.22,16.18 22.84,37.12 22.84,64.72 0,21.89 -7.62,39.97 -23.79,54.24 -16.18,14.28 -36.16,21.89 -59.95,21.89 -11.42,0 -17.13,-2.85 -17.13,-8.56 0,-1.91 1.9,-6.67 6.66,-13.33 4.76,-6.66 8.57,-14.27 11.42,-20.93 2.86,-6.67 4.76,-15.23 4.76,-24.75 0,-10.47 -2.85,-19.03 -7.61,-25.69 -4.76,-5.71 -11.42,-8.57 -19.99,-8.57 -13.32,0 -27.6,8.57 -41.86,24.75 -14.27,16.17 -26.65,42.82 -37.11,78.98 -10.47,36.17 -16.18,81.85 -16.18,137.99 0,25.7 1.9,46.64 6.66,62.81 3.81,16.18 10.47,31.41 20.94,45.68l10.46 13.33 -10.46 13.32 -151.3 0 -8.56 -26.65z"/>
   <path id="_4" class="fil0" d="M2260.9 4688.09c-29.5,0 -53.29,-5.71 -71.37,-17.13 -18.07,-11.42 -32.35,-29.5 -42.82,-55.19 -10.47,-24.75 -19.03,-59.96 -25.69,-104.69l-28.55 -180.81c-0.95,-8.57 -2.86,-14.28 -4.75,-17.13 -1.9,-2.86 -5.71,-3.81 -11.42,-3.81l-37.12 0 -8.56 -20.94c15.23,-14.27 33.31,-26.64 54.24,-37.11 19.98,-9.52 38.06,-14.28 54.24,-14.28 16.18,0 25.69,8.57 28.55,25.7l38.06 271.22c4.75,34.26 12.37,59.01 22.84,74.23 10.46,16.18 24.74,23.79 43.77,23.79 35.2,0 62.8,-19.98 80.88,-60.9 18.07,-40.92 27.59,-90.41 27.59,-148.46 0,-27.6 -2.85,-54.25 -9.52,-80.89 -6.66,-25.7 -17.12,-49.49 -29.49,-69.47l-7.61 -13.33 9.52 -10.47 103.72 -11.42c2.85,40.93 3.8,71.38 3.8,91.36 0,76.14 -8.56,140.85 -25.69,195.09 -18.08,54.25 -40.92,95.17 -69.46,122.77 -29.5,27.6 -60.91,41.87 -95.16,41.87z"/>
   <path id="_5" class="fil0" d="M2743.33 4688.09c-39.96,0 -75.17,-9.52 -104.66,-27.6 -29.5,-18.08 -53.29,-44.72 -69.47,-78.03 -16.18,-33.31 -24.73,-71.38 -24.73,-115.15 0,-45.68 9.5,-85.65 27.58,-120.86 18.09,-35.22 44.73,-61.86 78.98,-80.9 33.31,-19.03 72.33,-28.55 117.05,-28.55 46.63,0 83.73,12.38 109.43,37.12 25.69,24.74 38.05,54.24 38.05,89.46 0,23.79 -6.65,47.58 -19.02,69.47 -13.32,21.88 -32.36,39.97 -57.1,54.24 -25.68,14.28 -55.19,20.94 -88.49,20.94 -19.04,0 -39.96,-3.81 -61.85,-10.47 -21.89,-6.66 -33.31,-16.18 -33.31,-29.5 0,-4.76 0.95,-9.52 3.81,-13.33 2.85,-3.8 5.71,-5.71 8.56,-5.71 1.91,0 7.62,1.91 18.08,4.76 9.52,3.81 21.89,5.71 38.07,5.71 35.2,0 61.85,-9.51 80.88,-28.55 19.02,-19.03 28.54,-41.87 28.54,-68.52 0,-22.84 -7.61,-42.82 -21.88,-59 -15.22,-16.18 -35.21,-24.74 -59.95,-24.74 -37.11,0 -66.61,16.18 -86.59,48.53 -20.94,33.31 -31.4,79.94 -31.4,139.9 0,51.39 11.41,91.36 33.3,119.91 21.89,29.5 53.29,43.77 94.2,43.77 50.44,0 92.31,-16.18 125.61,-49.48 1.91,-1.91 4.76,-2.86 7.62,-2.86 4.76,0 10.47,2.86 16.18,7.61 4.74,4.76 7.6,10.47 7.6,16.18 0,1.91 -0.95,3.81 -1.9,4.76 -0.96,1.9 -1.9,2.86 -1.9,3.81 -21.89,25.69 -46.63,44.73 -76.13,57.1 -29.49,13.32 -61.85,19.98 -95.16,19.98z"/>
   <path id="_6" class="fil0" d="M3156.32 4688.09c-27.6,0 -53.29,-7.61 -77.08,-24.74 -23.79,-16.18 -42.82,-39.97 -57.1,-71.38 -14.27,-31.4 -21.87,-69.47 -21.87,-114.2 0,-74.22 19.97,-133.23 60.89,-176.05 39.96,-42.83 94.21,-64.72 162.72,-64.72 33.3,0 60.89,3.81 81.83,10.47l0 -153.21c0,-6.67 -0.95,-12.38 -3.81,-15.23 -2.85,-2.86 -6.66,-3.81 -12.37,-3.81l-38.06 0 -7.61 -21.89c16.18,-15.22 34.26,-27.59 56.14,-38.06 21.89,-9.52 39.97,-14.28 56.15,-14.28 8.56,0 15.22,2.86 19.97,7.62 4.76,4.75 7.62,11.42 7.62,19.98l0 571c0,18.08 9.51,26.64 27.59,26.64 14.28,0 28.55,-4.75 42.83,-15.22l16.17 21.89c-15.22,17.13 -31.4,30.45 -48.53,39.97 -17.13,10.46 -32.35,15.22 -46.63,15.22 -23.78,0 -41.86,-6.66 -52.33,-21.89 -10.47,-14.27 -16.18,-37.11 -16.18,-69.47 -22.84,33.31 -46.62,57.1 -70.41,70.43 -24.75,14.27 -51.38,20.93 -79.93,20.93zm33.31 -67.57c48.52,0 87.54,-25.69 117.03,-78.03l0 -233.16c-24.73,-16.18 -52.33,-24.74 -83.74,-24.74 -40.91,0 -73.26,15.22 -96.1,45.68 -23.79,31.4 -35.2,75.18 -35.2,131.33 0,54.24 9.5,94.21 28.54,119.91 18.08,25.69 41.87,39.01 69.47,39.01z"/>
   <path id="_7" class="fil0" d="M3675.87 4688.09c-27.59,0 -53.28,-7.61 -77.08,-24.74 -23.79,-16.18 -42.81,-39.97 -57.09,-71.38 -14.27,-31.4 -21.88,-69.47 -21.88,-114.2 0,-74.22 19.98,-133.23 60.89,-176.05 39.97,-42.83 94.21,-64.72 162.72,-64.72 22.84,0 54.24,3.81 93.25,10.47 29.5,4.76 55.2,8.57 78.99,10.47l11.41 10.47 -12.36 16.18c-4.76,7.61 -7.62,13.32 -8.57,17.13 -1.9,4.76 -2.85,10.47 -2.85,17.13l0 280.74c0,18.08 9.51,26.64 27.58,26.64 14.28,0 28.55,-4.75 42.83,-15.22l16.18 21.89c-15.23,17.13 -31.41,30.45 -48.54,39.97 -17.12,10.46 -32.34,15.22 -46.62,15.22 -23.79,0 -41.87,-6.66 -52.34,-21.89 -10.46,-14.27 -16.17,-37.11 -16.17,-69.47 -22.84,33.31 -46.63,57.1 -70.42,70.43 -24.74,14.27 -51.38,20.93 -79.93,20.93zm33.31 -67.57c48.52,0 87.54,-25.69 117.04,-78.03l0 -233.16c-24.74,-16.18 -52.34,-24.74 -83.75,-24.74 -40.91,0 -73.26,15.22 -96.09,45.68 -23.79,31.4 -35.21,75.18 -35.21,131.33 0,54.24 9.51,94.21 28.55,119.91 18.07,25.69 41.86,39.01 69.46,39.01z"/>
   <path id="_8" class="fil0" d="M4617.91 4916.49c-33.31,0 -61.85,-5.71 -85.64,-17.13 -23.79,-12.37 -41.87,-27.6 -53.29,-46.63 -12.36,-19.03 -18.07,-39.02 -18.07,-59.96 0,-29.5 9.52,-54.24 29.49,-74.23 19.03,-19.98 45.68,-30.45 79.93,-30.45 10.47,0 16.18,2.86 16.18,8.57 0,2.85 -3.81,8.56 -12.37,17.13 -8.56,8.56 -15.22,18.08 -20.93,30.45 -6.66,12.37 -9.52,27.6 -9.52,45.68 0,23.79 7.62,42.82 23.78,58.05 16.18,15.23 37.12,22.84 64.72,22.84 38.05,0 66.6,-14.27 85.64,-42.82 18.08,-29.51 27.6,-76.14 27.6,-141.8l0 -81.84c-46.64,38.06 -97.06,57.1 -152.26,57.1 -58.04,0 -107.53,-13.33 -147.49,-40.93 -39.97,-27.59 -69.46,-64.71 -89.44,-111.34 -19.99,-46.63 -30.46,-99.92 -30.46,-157.98 0,-56.14 10.47,-106.58 32.36,-153.21 20.94,-46.63 53.28,-83.75 96.11,-111.35 42.81,-27.6 94.2,-41.87 156.05,-41.87 39.97,0 76.12,5.71 107.53,17.13 31.4,11.42 56.13,27.6 74.22,47.58 18.08,20.94 26.64,44.73 26.64,70.43 0,29.5 -8.56,54.24 -25.69,73.27 -18.08,19.04 -39.97,28.55 -66.61,28.55 -8.56,0 -13.32,-0.95 -14.27,-1.9 -1.91,-0.95 -2.86,-4.76 -2.86,-9.52 0,-1.9 2.86,-6.66 7.62,-15.22 4.75,-7.62 8.56,-16.18 11.42,-26.65 2.85,-10.47 4.75,-21.89 4.75,-36.16 0,-29.5 -11.42,-54.25 -33.3,-72.33 -22.84,-18.08 -52.34,-27.6 -89.45,-27.6 -44.72,0 -81.83,13.33 -110.38,39.02 -28.54,25.7 -49.48,58.05 -61.85,97.07 -12.37,39.02 -19.03,78.04 -19.03,118.96 0,47.58 7.61,91.36 21.88,130.37 14.28,39.02 36.16,70.43 63.76,93.27 27.59,22.84 59,34.26 95.15,34.26 58.05,0 106.58,-19.04 145.6,-58.05l0 -43.78c0,-25.7 -3.81,-44.73 -11.42,-55.2 -8.57,-10.46 -23.8,-18.08 -45.68,-24.74l-18.09 -5.71 9.52 -30.45 181.75 0 10.47 15.22 -10.47 15.23c-14.28,19.03 -24.74,39.02 -30.45,60.91 -6.66,21.88 -9.51,49.48 -9.51,83.74l0 98.98c0,170.34 -67.57,255.04 -203.64,255.04z"/>
   <path id="_9" class="fil0" d="M5109.87 4688.09c-40.92,0 -73.27,-12.37 -96.1,-38.06 -22.84,-24.75 -34.26,-59.96 -34.26,-104.69l0 -215.07c0,-14.28 -5.71,-20.94 -17.13,-20.94l-39.01 0 -6.66 -20.94c14.27,-15.22 32.34,-27.59 54.23,-37.11 20.94,-9.52 39.97,-14.28 58.04,-14.28 8.57,0 15.23,1.91 20.94,6.67 4.76,4.75 7.61,11.42 7.61,19.03l0 261.71c0,34.26 6.66,59.95 20.94,78.03 14.27,18.08 34.26,27.6 61.85,27.6 39.01,0 68.52,-17.13 90.39,-50.44 21.89,-33.31 32.36,-78.99 32.36,-137.99 0,-41.87 -1.9,-75.18 -6.66,-98.97 -4.76,-23.79 -14.28,-46.63 -27.6,-69.47l-10.47 -13.33 10.47 -12.37 106.58 -10.47 0 362.59c0,18.08 7.61,26.64 22.84,26.64 14.27,0 28.55,-4.75 42.81,-15.22l17.13 21.89c-14.27,16.17 -29.49,29.5 -46.62,39.97 -18.08,10.46 -34.26,15.22 -49.49,15.22 -22.84,0 -39,-6.66 -49.47,-20.93 -10.47,-13.33 -15.23,-34.26 -15.23,-62.81 -14.27,25.69 -34.26,46.63 -59.94,60.9 -25.7,15.23 -55.2,22.84 -87.55,22.84z"/>
   <path id="_10" class="fil0" d="M5478.13 4649.07l16.16 -4.75c15.23,-2.86 25.7,-8.57 30.46,-18.09 4.76,-8.56 6.66,-24.74 6.66,-46.63l0 -241.72c0,-6.66 -0.95,-12.37 -3.81,-15.23 -2.85,-2.85 -6.66,-3.8 -13.32,-3.8l-37.11 0 -8.56 -22.84c16.17,-15.23 35.2,-27.6 57.09,-37.12 21.89,-9.51 40.92,-14.27 57.09,-14.27 8.56,0 15.23,2.85 19.98,7.61 4.76,4.76 7.62,11.42 7.62,19.03l0 94.22 4.76 0c10.46,-39.02 25.69,-69.47 46.63,-93.26 19.97,-23.8 42.81,-35.22 66.6,-35.22 23.79,0 43.77,7.62 59.95,22.84 15.22,16.18 22.84,37.12 22.84,64.72 0,21.89 -7.62,39.97 -23.79,54.24 -16.18,14.28 -36.16,21.89 -59.95,21.89 -11.42,0 -17.13,-2.85 -17.13,-8.56 0,-1.91 1.9,-6.67 6.66,-13.33 4.76,-6.66 8.57,-14.27 11.42,-20.93 2.86,-6.67 4.76,-15.23 4.76,-24.75 0,-10.47 -2.85,-19.03 -7.61,-25.69 -4.76,-5.71 -11.42,-8.57 -19.99,-8.57 -13.32,0 -27.6,8.57 -41.86,24.75 -14.27,16.17 -26.65,42.82 -37.11,78.98 -10.47,36.17 -16.18,81.85 -16.18,137.99 0,25.7 1.9,46.64 6.66,62.81 3.81,16.18 10.47,31.41 20.94,45.68l10.46 13.33 -10.46 13.32 -151.31 0 -8.55 -26.65z"/>
   <path id="_11" class="fil0" d="M6030.98 4688.09c-40.92,0 -73.27,-12.37 -96.1,-38.06 -22.84,-24.75 -34.26,-59.96 -34.26,-104.69l0 -215.07c0,-14.28 -5.71,-20.94 -17.13,-20.94l-39.01 0 -6.66 -20.94c14.26,-15.22 32.34,-27.59 54.23,-37.11 20.94,-9.52 39.97,-14.28 58.04,-14.28 8.57,0 15.23,1.91 20.94,6.67 4.76,4.75 7.61,11.42 7.61,19.03l0 261.71c0,34.26 6.66,59.95 20.94,78.03 14.27,18.08 34.26,27.6 61.85,27.6 39.01,0 68.51,-17.13 90.39,-50.44 21.89,-33.31 32.36,-78.99 32.36,-137.99 0,-41.87 -1.9,-75.18 -6.66,-98.97 -4.76,-23.79 -14.28,-46.63 -27.6,-69.47l-10.47 -13.33 10.47 -12.37 106.58 -10.47 0 362.59c0,18.08 7.61,26.64 22.84,26.64 14.27,0 28.55,-4.75 42.81,-15.22l17.13 21.89c-14.27,16.17 -29.49,29.5 -46.62,39.97 -18.08,10.46 -34.26,15.22 -49.49,15.22 -22.84,0 -39,-6.66 -49.47,-20.93 -10.47,-13.33 -15.23,-34.26 -15.23,-62.81 -14.27,25.69 -34.26,46.63 -59.94,60.9 -25.7,15.23 -55.2,22.84 -87.55,22.84z"/>
  </g>
 </g>
</svg>
